<mxfile host="app.diagrams.net" modified="2023-12-20T21:34:49.169Z" agent="Mozilla/5.0 (Windows NT 10.0; Win64; x64) AppleWebKit/537.36 (KHTML, like Gecko) Chrome/120.0.0.0 Safari/537.36" version="22.1.11" etag="ZT47RvTR3rlEYpzf4n85" type="github">
  <diagram name="PÃ¡gina-1" id="sq_nn6Wx1oU2RpFAcGtM">
    <mxGraphModel>
      <root>
        <mxCell id="0" />
        <mxCell id="1" parent="0" />
      </root>
    </mxGraphModel>
  </diagram>
</mxfile>
